<?xml version="1.0" encoding="utf-8"?>
<svg xmlns="http://www.w3.org/2000/svg" xmlns:xlink="http://www.w3.org/1999/xlink" style="margin: auto; background: none; display: block; shape-rendering: auto;" width="84px" height="84px" viewBox="0 0 100 100" preserveAspectRatio="xMidYMid">
<g transform="rotate(0 50 50)">
  <rect x="46.5" y="23" rx="3.24" ry="3.24" width="7" height="12" fill="#0b76cc">
    <animate attributeName="opacity" values="1;0" keyTimes="0;1" dur="0.8928571428571428s" begin="-0.7936507936507935s" repeatCount="indefinite"></animate>
  </rect>
</g><g transform="rotate(40 50 50)">
  <rect x="46.5" y="23" rx="3.24" ry="3.24" width="7" height="12" fill="#0b76cc">
    <animate attributeName="opacity" values="1;0" keyTimes="0;1" dur="0.8928571428571428s" begin="-0.6944444444444443s" repeatCount="indefinite"></animate>
  </rect>
</g><g transform="rotate(80 50 50)">
  <rect x="46.5" y="23" rx="3.24" ry="3.24" width="7" height="12" fill="#0b76cc">
    <animate attributeName="opacity" values="1;0" keyTimes="0;1" dur="0.8928571428571428s" begin="-0.5952380952380951s" repeatCount="indefinite"></animate>
  </rect>
</g><g transform="rotate(120 50 50)">
  <rect x="46.5" y="23" rx="3.24" ry="3.24" width="7" height="12" fill="#0b76cc">
    <animate attributeName="opacity" values="1;0" keyTimes="0;1" dur="0.8928571428571428s" begin="-0.49603174603174593s" repeatCount="indefinite"></animate>
  </rect>
</g><g transform="rotate(160 50 50)">
  <rect x="46.5" y="23" rx="3.24" ry="3.24" width="7" height="12" fill="#0b76cc">
    <animate attributeName="opacity" values="1;0" keyTimes="0;1" dur="0.8928571428571428s" begin="-0.39682539682539675s" repeatCount="indefinite"></animate>
  </rect>
</g><g transform="rotate(200 50 50)">
  <rect x="46.5" y="23" rx="3.24" ry="3.24" width="7" height="12" fill="#0b76cc">
    <animate attributeName="opacity" values="1;0" keyTimes="0;1" dur="0.8928571428571428s" begin="-0.29761904761904756s" repeatCount="indefinite"></animate>
  </rect>
</g><g transform="rotate(240 50 50)">
  <rect x="46.5" y="23" rx="3.24" ry="3.24" width="7" height="12" fill="#0b76cc">
    <animate attributeName="opacity" values="1;0" keyTimes="0;1" dur="0.8928571428571428s" begin="-0.19841269841269837s" repeatCount="indefinite"></animate>
  </rect>
</g><g transform="rotate(280 50 50)">
  <rect x="46.5" y="23" rx="3.24" ry="3.24" width="7" height="12" fill="#0b76cc">
    <animate attributeName="opacity" values="1;0" keyTimes="0;1" dur="0.8928571428571428s" begin="-0.09920634920634919s" repeatCount="indefinite"></animate>
  </rect>
</g><g transform="rotate(320 50 50)">
  <rect x="46.5" y="23" rx="3.24" ry="3.24" width="7" height="12" fill="#0b76cc">
    <animate attributeName="opacity" values="1;0" keyTimes="0;1" dur="0.8928571428571428s" begin="0s" repeatCount="indefinite"></animate>
  </rect>
</g>
<!-- [ldio] generated by https://loading.io/ --></svg>